<svg version="1.1" viewBox="0.0 0.0 719.7821522309712 719.7821522309712" fill="none" stroke="none" stroke-linecap="square" stroke-miterlimit="10" xmlns:xlink="http://www.w3.org/1999/xlink" xmlns="http://www.w3.org/2000/svg"><clipPath id="p.0"><path d="m0 0l719.78217 0l0 719.78217l-719.78217 0l0 -719.78217z" clip-rule="nonzero"/></clipPath><g clip-path="url(#p.0)"><path fill="#000000" fill-opacity="0.0" d="m0 0l719.78217 0l0 719.78217l-719.78217 0z" fill-rule="evenodd"/><path fill="#728a75" d="m-0.001312336 120.0129l0 0c0 -66.2726 53.724556 -119.997154 119.997154 -119.997154l480.00568 0l0 0c31.825256 0 62.346985 12.642521 84.85083 35.14635c22.503784 22.503834 35.1463 53.025578 35.1463 84.8508l0 479.9742c0 66.27258 -53.72455 119.99713 -119.99713 119.99713l-480.00568 0c-66.2726 0 -119.997154 -53.72455 -119.997154 -119.99713z" fill-rule="evenodd"/><path fill="#ffd700" d="m74.0 242.58267l0 0c0 -133.97472 128.04655 -242.58269 286.0 -242.58269l0 0c157.95343 0 286.0 108.60796 286.0 242.58269l0 0c0 133.9747 -128.04657 242.58267 -286.0 242.58267l0 0c-157.95345 0 -286.0 -108.60797 -286.0 -242.58267z" fill-rule="evenodd"/><path fill="#000000" fill-opacity="0.0" d="m94.522766 123.13064l542.7402 0l0 135.74802l-542.7402 0z" fill-rule="evenodd"/><path fill="#000000" d="m124.054016 242.57188q-4.59375 0 -8.25 -2.390625q-3.65625 -2.390625 -6.1875 -6.515625q-2.53125 -4.125 -3.703125 -9.5625q-1.171875 -5.4375 -0.890625 -11.53125q0.375 -6.46875 1.96875 -13.359375q1.59375 -6.890625 4.3125 -13.453125q2.71875 -6.5625 6.328125 -12.46875q3.609375 -5.90625 7.96875 -10.3125q4.359375 -4.40625 9.328125 -6.984375q4.96875 -2.578125 10.40625 -2.578125q3.5625 0 6.0 1.78125q2.4375 1.78125 3.796875 4.640625q1.359375 2.859375 1.734375 6.421875q0.375 3.5625 -0.046875 7.078125q-0.421875 3.515625 -1.59375 6.75q-1.171875 3.234375 -2.859375 5.296875q-2.15625 2.71875 -3.890625 2.859375q-1.734375 0.140625 -3.328125 -0.984375q-0.65625 -0.5625 -1.3125 -1.3125q-0.65625 -0.65625 -1.40625 -1.640625q-0.75 -0.984375 -1.59375 -2.484375q1.78125 -0.65625 3.28125 -2.203125q1.5 -1.546875 2.578125 -3.515625q1.078125 -1.96875 1.6875 -4.171875q0.609375 -2.203125 0.703125 -4.359375q0.09375 -1.6875 -0.09375 -3.328125q-0.1875 -1.640625 -0.75 -2.90625q-0.5625 -1.265625 -1.546875 -2.0625q-0.984375 -0.796875 -2.484375 -0.796875q-3.75 0 -7.3125 2.859375q-3.5625 2.859375 -6.703125 7.59375q-3.140625 4.734375 -5.8125 10.828125q-2.671875 6.09375 -4.640625 12.5625q-1.96875 6.46875 -3.1875 12.75q-1.21875 6.28125 -1.5 11.4375q-0.375 6.46875 0.46875 10.5q0.84375 4.03125 2.296875 6.328125q1.453125 2.296875 3.140625 3.09375q1.6875 0.796875 3.09375 0.796875q2.625 0 5.90625 -2.4375q3.28125 -2.4375 6.28125 -6.609375q3.0 -4.171875 5.390625 -9.609375q2.390625 -5.4375 3.421875 -11.4375q-2.34375 0 -4.734375 0.046875q-2.390625 0.046875 -4.546875 0.140625q-2.15625 0.09375 -3.84375 0.234375q-1.6875 0.140625 -2.625 0.328125q-0.65625 -0.28125 -0.890625 -0.65625q-0.234375 -0.375 -0.421875 -0.84375q-0.1875 -0.375 -0.1875 -0.9375q0 -0.5625 0.1875 -1.03125q0.1875 -0.46875 0.46875 -0.984375q0.28125 -0.515625 0.75 -1.078125q3.0 -0.5625 5.90625 -0.9375q2.90625 -0.375 6.046875 -0.609375q3.140625 -0.234375 6.75 -0.375q3.609375 -0.140625 8.109375 -0.234375q1.875 -0.09375 2.296875 0.46875q0.421875 0.5625 -0.328125 2.8125q-0.5625 1.78125 -1.453125 2.90625q-0.890625 1.125 -2.953125 0.9375q-0.65625 0 -1.03125 -0.09375q-0.84375 5.53125 -3.5625 11.71875q-2.71875 6.1875 -6.65625 11.4375q-3.9375 5.25 -8.671875 8.71875q-4.734375 3.46875 -9.609375 3.46875zm66.0 -33.1875q-0.9375 3.5625 -2.53125 6.65625q-1.59375 3.09375 -3.796875 5.34375q-2.203125 2.25 -4.96875 3.515625q-2.765625 1.265625 -6.046875 1.265625q-3.84375 0 -6.046875 -1.640625q-2.203125 -1.640625 -3.28125 -4.078125q-1.078125 -2.4375 -1.3125 -5.34375q-0.234375 -2.90625 -0.234375 -5.4375q0 -1.78125 0.421875 -3.9375q0.421875 -2.15625 1.171875 -4.40625q0.75 -2.25 1.921875 -4.5q1.171875 -2.25 2.765625 -4.125q0.5625 -1.59375 1.734375 -2.8125q1.171875 -1.21875 2.71875 -2.015625q1.546875 -0.796875 3.328125 -1.21875q1.78125 -0.421875 3.46875 -0.421875q0.28125 0 0.515625 0.09375q0.234375 0.09375 0.515625 0.1875q1.21875 0.09375 3.046875 0.9375q1.828125 0.84375 3.5625 2.53125q1.734375 1.6875 2.953125 4.265625q1.21875 2.578125 1.21875 6.234375q0 0.75 -0.09375 1.828125q-0.09375 1.078125 -0.1875 1.828125q2.15625 -0.84375 4.5 -2.0625q2.34375 -1.21875 4.546875 -2.578125q2.203125 -1.359375 4.078125 -2.765625q1.875 -1.40625 3.0 -2.53125q0.9375 -0.84375 1.59375 -0.9375q0.65625 -0.09375 0.9375 0.375q0.28125 0.46875 0.09375 1.3125q-0.1875 0.84375 -1.03125 1.875q-0.46875 0.5625 -2.390625 2.25q-1.921875 1.6875 -4.546875 3.65625q-2.625 1.96875 -5.71875 3.84375q-3.09375 1.875 -5.90625 2.8125zm-15.84375 -14.25q-0.28125 0.84375 -0.28125 1.78125q0 1.5 0.1875 3.140625q0.1875 1.640625 0.9375 2.953125q0.75 1.3125 2.390625 2.203125q1.640625 0.890625 4.546875 0.890625q0.46875 0 0.9375 -0.046875q0.46875 -0.046875 0.9375 -0.140625q0.28125 -1.21875 0.515625 -2.203125q0.234375 -0.984375 0.234375 -1.734375q0.1875 -1.78125 0 -3.65625q-0.1875 -1.875 -0.703125 -3.421875q-0.515625 -1.546875 -1.3125 -2.53125q-0.796875 -0.984375 -1.921875 -0.984375q-1.78125 0 -3.421875 0.984375q-1.640625 0.984375 -3.046875 2.765625zm-6.0 16.5q0 1.6875 0.1875 3.328125q0.1875 1.640625 0.75 2.90625q0.5625 1.265625 1.5 2.0625q0.9375 0.796875 2.4375 0.796875q1.6875 0 3.09375 -0.796875q1.40625 -0.796875 2.53125 -2.0625q1.125 -1.265625 2.015625 -2.90625q0.890625 -1.640625 1.546875 -3.421875q-0.65625 0.09375 -1.265625 0.140625q-0.609375 0.046875 -1.359375 0.046875q-3.5625 0 -6.140625 -2.109375q-2.578125 -2.109375 -3.984375 -5.390625q-0.5625 1.96875 -0.9375 3.84375q-0.375 1.875 -0.375 3.5625zm30.46875 11.15625q4.125 -17.34375 6.609375 -27.84375q2.484375 -10.5 3.796875 -16.03125q1.5 -6.5625 2.0625 -9.09375q0.28125 -1.78125 0.46875 -3.46875q0.1875 -1.5 0.1875 -3.09375q0 -1.59375 -0.28125 -2.90625q0.75 -0.46875 1.640625 -0.75q0.890625 -0.28125 1.734375 -0.46875q1.03125 -0.28125 2.0625 -0.46875q1.03125 -0.1875 1.875 -0.1875q0.75 0 1.40625 0.140625q0.65625 0.140625 0.84375 0.609375q0.5625 0.46875 0.515625 1.875q-0.046875 1.40625 -0.234375 2.90625q-0.375 1.78125 -0.84375 3.84375q-1.125 4.03125 -3.09375 11.625q-1.6875 6.46875 -4.546875 17.625q-2.859375 11.15625 -7.171875 28.125q-0.46875 0.46875 -1.125 0.65625q-0.65625 0.1875 -1.21875 0.1875q-0.65625 0 -1.40625 -0.09375q-0.65625 -0.1875 -1.3125 -0.5625q-0.5625 -0.375 -1.125 -0.984375q-0.5625 -0.609375 -0.84375 -1.640625zm24.28125 -8.25q-1.03125 -1.03125 -1.453125 -2.015625q-0.421875 -0.984375 -0.609375 -1.921875q-0.1875 -1.03125 0 -2.0625q0.375 -1.3125 1.125 -2.4375q0.65625 -1.03125 1.78125 -2.109375q1.125 -1.078125 3.0 -2.015625q1.21875 -3.0 2.203125 -6.328125q0.984375 -3.328125 1.734375 -6.046875q0.84375 -3.1875 1.5 -6.375q2.34375 -7.96875 2.4375 -12.984375q0.09375 -5.015625 -0.1875 -6.609375q-0.09375 -0.65625 -0.1875 -1.3125q-0.1875 -0.5625 -0.328125 -1.265625q-0.140625 -0.703125 -0.328125 -1.359375q1.03125 -0.5625 1.828125 -0.9375q0.796875 -0.375 1.359375 -0.5625q0.65625 -0.28125 1.21875 -0.375q2.15625 -0.46875 4.078125 -0.515625q1.921875 -0.046875 2.109375 0.703125q0.09375 0.46875 0.234375 1.6875q0.140625 1.21875 0.140625 3.0q0 1.78125 -0.28125 3.984375q-0.28125 2.203125 -1.03125 4.640625q-0.65625 2.15625 -1.78125 6.0q-1.03125 3.28125 -2.71875 8.765625q-1.6875 5.484375 -4.40625 14.015625q2.8125 -0.9375 6.1875 -1.78125q3.375 -0.84375 6.890625 -1.40625q3.515625 -0.5625 7.03125 -0.84375q3.515625 -0.28125 6.515625 -0.09375q0.5625 0 0.796875 0.515625q0.234375 0.515625 0 1.078125q-0.234375 0.5625 -1.03125 1.078125q-0.796875 0.515625 -2.296875 0.609375q-1.875 0.1875 -4.125 0.421875q-2.25 0.234375 -4.640625 0.65625q-2.390625 0.421875 -4.734375 1.03125q-2.34375 0.609375 -4.40625 1.453125q-1.59375 0.5625 -3.1875 1.125q-1.3125 0.46875 -2.765625 1.078125q-1.453125 0.609375 -2.390625 1.078125l-2.15625 6.84375q5.4375 3.84375 8.390625 7.875q2.953125 4.03125 4.265625 7.40625q1.59375 3.9375 1.78125 7.6875q0 4.125 -1.21875 8.296875q-1.21875 4.171875 -3.234375 7.9687653q-2.015625 3.796875 -4.6875 7.078125q-2.671875 3.28125 -5.625 5.625q-2.953125 2.34375 -6.0 3.5625q-3.046875 1.21875 -5.765625 0.9375q-1.96875 -0.1875 -3.28125 -1.265625q-1.3125 -1.078125 -1.96875 -2.71875q-0.65625 -1.640625 -0.75 -3.65625q-0.09375 -2.015625 0.375 -3.984375q0.375 -1.96875 1.59375 -7.3125153q1.03125 -4.5 3.1875 -13.078125q2.15625 -8.578125 5.8125 -22.828125zm5.53125 4.40625q-1.3125 4.6875 -2.296875 8.625q-0.984375 3.9375 -1.640625 6.9375q-0.84375 3.46875 -1.3125 6.28125q-0.84375 3.5625 -1.734375 7.03125q-0.890625 3.4687653 -1.40625 6.2343903q-0.515625 2.765625 -0.421875 4.453125q0.09375 1.6875 1.21875 1.6875q2.71875 0.1875 5.671875 -2.109375q2.953125 -2.296875 5.390625 -5.8125q2.4375 -3.5156403 4.03125 -7.5937653q1.59375 -4.078125 1.59375 -7.546875q0 -3.84375 -1.21875 -7.59375q-0.84375 -1.96875 -1.96875 -3.84375q-1.03125 -1.59375 -2.484375 -3.421875q-1.453125 -1.828125 -3.421875 -3.328125zm71.25 23.625q-4.59375 0 -8.25 -2.390625q-3.65625 -2.390625 -6.1875 -6.515625q-2.53125 -4.125 -3.703125 -9.5625q-1.171875 -5.4375 -0.890625 -11.53125q0.375 -6.46875 1.96875 -13.359375q1.59375 -6.890625 4.3125 -13.453125q2.71875 -6.5625 6.328125 -12.46875q3.609375 -5.90625 7.96875 -10.3125q4.359375 -4.40625 9.328125 -6.984375q4.96875 -2.578125 10.40625 -2.578125q3.5625 0 6.0 1.78125q2.4375 1.78125 3.796875 4.640625q1.359375 2.859375 1.734375 6.421875q0.375 3.5625 -0.046875 7.078125q-0.421875 3.515625 -1.59375 6.75q-1.171875 3.234375 -2.859375 5.296875q-2.15625 2.71875 -3.890625 2.859375q-1.734375 0.140625 -3.328125 -0.984375q-0.65625 -0.5625 -1.3125 -1.3125q-0.65625 -0.65625 -1.40625 -1.640625q-0.75 -0.984375 -1.59375 -2.484375q1.78125 -0.65625 3.28125 -2.203125q1.5 -1.546875 2.578125 -3.515625q1.078125 -1.96875 1.6875 -4.171875q0.609375 -2.203125 0.703125 -4.359375q0.09375 -1.6875 -0.09375 -3.328125q-0.1875 -1.640625 -0.75 -2.90625q-0.5625 -1.265625 -1.546875 -2.0625q-0.984375 -0.796875 -2.484375 -0.796875q-3.75 0 -7.3125 2.859375q-3.5625 2.859375 -6.703125 7.59375q-3.140625 4.734375 -5.8125 10.828125q-2.671875 6.09375 -4.640625 12.5625q-1.96875 6.46875 -3.1875 12.75q-1.21875 6.28125 -1.5 11.4375q-0.375 6.46875 0.46875 10.5q0.84375 4.03125 2.296875 6.328125q1.453125 2.296875 3.140625 3.09375q1.6875 0.796875 3.09375 0.796875q2.625 0 5.90625 -2.4375q3.28125 -2.4375 6.28125 -6.609375q3.0 -4.171875 5.390625 -9.609375q2.390625 -5.4375 3.421875 -11.4375q-2.34375 0 -4.734375 0.046875q-2.390625 0.046875 -4.546875 0.140625q-2.15625 0.09375 -3.84375 0.234375q-1.6875 0.140625 -2.625 0.328125q-0.65625 -0.28125 -0.890625 -0.65625q-0.234375 -0.375 -0.421875 -0.84375q-0.1875 -0.375 -0.1875 -0.9375q0 -0.5625 0.1875 -1.03125q0.1875 -0.46875 0.46875 -0.984375q0.28125 -0.515625 0.75 -1.078125q3.0 -0.5625 5.90625 -0.9375q2.90625 -0.375 6.046875 -0.609375q3.140625 -0.234375 6.75 -0.375q3.609375 -0.140625 8.109375 -0.234375q1.875 -0.09375 2.296875 0.46875q0.421875 0.5625 -0.328125 2.8125q-0.5625 1.78125 -1.453125 2.90625q-0.890625 1.125 -2.953125 0.9375q-0.65625 0 -1.03125 -0.09375q-0.84375 5.53125 -3.5625 11.71875q-2.71875 6.1875 -6.65625 11.4375q-3.9375 5.25 -8.671875 8.71875q-4.734375 3.46875 -9.609375 3.46875zm86.34375 -36.9375q-1.3125 1.875 -3.375 4.640625q-2.0625 2.765625 -4.265625 5.53125q-2.203125 2.765625 -4.3125 5.0625q-2.109375 2.296875 -3.515625 3.234375q-0.9375 0.5625 -2.15625 0.9375q-1.21875 0.375 -2.484375 0.46875q-1.265625 0.09375 -2.390625 -0.140625q-1.125 -0.234375 -1.96875 -0.796875q-0.84375 -0.65625 -1.40625 -1.875q-0.46875 -1.03125 -0.890625 -2.71875q-0.421875 -1.6875 -0.328125 -4.21875q-2.25 3.75 -4.96875 5.765625q-2.71875 2.015625 -5.15625 2.953125q-2.8125 1.03125 -5.625 1.21875q-1.3125 0 -2.8125 -0.890625q-1.5 -0.890625 -2.53125 -2.8125q-1.03125 -1.921875 -1.3125 -4.96875q-0.28125 -3.046875 0.75 -7.265625q1.3125 -5.71875 4.171875 -10.40625q2.859375 -4.6875 6.234375 -8.015625q3.375 -3.328125 6.65625 -5.015625q3.28125 -1.6875 5.4375 -1.5q2.53125 0.46875 4.125 1.5q1.3125 0.9375 1.734375 2.765625q0.421875 1.828125 -1.546875 4.828125q1.3125 -0.28125 2.203125 -0.375q0.890625 -0.09375 1.359375 -0.09375q0.5625 0 0.75 0.09375q0.09375 0.1875 0.09375 0.796875q0 0.609375 -0.28125 2.203125q-0.28125 1.59375 -0.84375 4.3125q-0.5625 2.71875 -1.5 7.03125q-0.1875 0.84375 -0.328125 1.546875q-0.140625 0.703125 -0.28125 1.40625q-0.140625 0.703125 -0.328125 1.640625q-0.1875 0.9375 -0.46875 2.34375q-0.09375 0.84375 -0.046875 1.828125q0.046875 0.984375 0.328125 1.828125q0.28125 0.84375 0.890625 1.359375q0.609375 0.515625 1.734375 0.515625q0.9375 0 2.4375 -1.171875q1.5 -1.171875 3.1875 -3.0q1.6875 -1.828125 3.515625 -4.03125q1.828125 -2.203125 3.421875 -4.265625q1.59375 -2.0625 2.859375 -3.65625q1.265625 -1.59375 1.828125 -2.34375q0.75 -0.84375 1.5 -0.984375q0.75 -0.140625 1.125 0.421875q0.375 0.5625 0.140625 1.6875q-0.234375 1.125 -1.359375 2.625zm-27.46875 4.125q0.46875 -1.875 1.125 -4.40625q0.65625 -2.53125 1.125 -4.875q0.46875 -2.34375 0.703125 -3.890625q0.234375 -1.546875 -0.140625 -1.453125q-0.46875 0.09375 -1.03125 0.28125q-0.46875 0.1875 -1.21875 0.28125q-0.75 0.09375 -1.5 0.28125q0.75 -1.5 0.890625 -2.484375q0.140625 -0.984375 0.046875 -1.546875q-0.09375 -0.65625 -0.375 -1.03125q-1.03125 -0.84375 -3.609375 1.359375q-2.578125 2.203125 -5.953125 8.109375q-1.40625 2.4375 -2.25 5.203125q-0.84375 2.765625 -1.171875 5.203125q-0.328125 2.4375 -0.140625 4.265625q0.1875 1.828125 0.75 2.390625q1.03125 1.03125 2.34375 0.984375q1.3125 -0.046875 2.671875 -0.75q1.359375 -0.703125 2.71875 -1.828125q1.359375 -1.125 2.4375 -2.34375q1.078125 -1.21875 1.78125 -2.25q0.703125 -1.03125 0.796875 -1.5zm64.875 10.21875q0 -1.96875 0.421875 -4.5q0.421875 -2.53125 1.078125 -5.203125q0.65625 -2.671875 1.3125 -5.203125q0.65625 -2.53125 1.125 -4.5q0.5625 -2.4375 -0.09375 -3.75q-0.65625 -1.3125 -2.25 -1.3125q-0.75 0 -2.953125 1.3125q-2.203125 1.3125 -4.78125 4.546875q-2.578125 3.234375 -5.0625 8.71875q-2.484375 5.484375 -3.890625 13.921875q-1.78125 0.9375 -3.375 1.21875q-0.84375 0.1875 -1.5 0.28125q-1.875 0.09375 -2.4375 -0.609375q-0.5625 -0.703125 0.1875 -3.421875q0.375 -1.3125 1.359375 -4.21875q0.984375 -2.90625 1.921875 -6.328125q0.9375 -3.421875 1.640625 -6.84375q0.703125 -3.421875 0.703125 -5.953125q0 -1.78125 -0.609375 -2.4375q-0.609375 -0.65625 -1.734375 -0.65625q-0.84375 0 -2.8125 0.9375q-1.96875 0.9375 -4.40625 3.65625q-2.4375 2.71875 -4.828125 7.546875q-2.390625 4.828125 -4.078125 12.515625l0 -0.1875q-0.1875 0.75 -0.375 1.5q-0.1875 0.65625 -0.28125 1.40625q-0.09375 0.75 -0.28125 1.40625l-4.6875 2.0625q-0.46875 0.1875 -1.171875 0.28125q-0.703125 0.09375 -1.3125 -0.234375q-0.609375 -0.328125 -0.890625 -1.359375q-0.28125 -1.03125 0.1875 -3.09375l5.90625 -24.46875q0.28125 -1.21875 0.46875 -2.34375q0.1875 -1.03125 0.234375 -2.015625q0.046875 -0.984375 -0.140625 -1.640625q1.59375 -0.75 2.8125 -1.125q1.21875 -0.375 1.96875 -0.5625q0.9375 -0.28125 1.59375 -0.28125q3.0 0 1.96875 5.15625q-0.375 1.5 -1.125 4.40625q1.78125 -2.25 3.796875 -4.265625q2.015625 -2.015625 4.078125 -3.609375q2.0625 -1.59375 4.171875 -2.53125q2.109375 -0.9375 4.171875 -0.9375q1.59375 0 2.671875 0.9375q1.078125 0.9375 1.6875 2.484375q0.609375 1.546875 0.703125 3.65625q0.09375 2.109375 -0.1875 4.359375q1.5 -1.96875 3.328125 -3.984375q1.828125 -2.015625 3.84375 -3.609375q2.015625 -1.59375 4.171875 -2.625q2.15625 -1.03125 4.3125 -1.03125q2.53125 0 3.890625 1.5q1.359375 1.5 1.875 3.84375q0.515625 2.34375 0.28125 5.0625q-0.234375 2.71875 -0.796875 5.25l-3.1875 12.65625q-1.03125 4.6875 1.96875 4.6875q2.34375 0 5.15625 -2.25q2.8125 -2.25 5.484375 -5.34375q2.671875 -3.09375 5.015625 -6.375q2.34375 -3.28125 3.9375 -5.25q0.5625 -0.65625 1.171875 -0.75q0.609375 -0.09375 1.03125 0.234375q0.421875 0.328125 0.46875 1.078125q0.046875 0.75 -0.515625 1.875q-1.875 3.28125 -4.59375 7.265625q-2.71875 3.984375 -5.953125 7.453125q-3.234375 3.46875 -6.890625 5.8125q-3.65625 2.34375 -7.59375 2.34375q-1.3125 0 -2.578125 -0.28125q-1.265625 -0.28125 -2.34375 -1.03125q-1.078125 -0.75 -1.734375 -2.015625q-0.65625 -1.265625 -0.65625 -3.234375zm46.6875 -49.40625q-1.40625 5.625 -3.140625 10.734375q-1.734375 5.109375 -3.5625 9.5625q-1.828125 4.453125 -3.65625 8.109375q-1.828125 3.65625 -3.234375 6.375q-0.9375 6.75 0 10.875q0.9375 4.125 3.65625 4.125q2.25 0 4.40625 -2.0625q2.15625 -2.0625 3.84375 -5.0625q1.6875 -3.0 2.859375 -6.421875q1.171875 -3.421875 1.453125 -6.140625q-1.78125 -0.46875 -3.0 -1.640625q-1.21875 -1.171875 -1.21875 -3.140625q0 -1.3125 0.75 -2.484375q0.75 -1.171875 1.78125 -2.015625q1.03125 -0.84375 2.25 -1.3125q1.21875 -0.46875 2.25 -0.46875q1.59375 0 2.71875 2.015625q1.125 2.015625 1.5 5.109375q3.75 -0.09375 7.875 -1.125q4.125 -1.03125 7.78125 -2.625q1.03125 -0.46875 1.6875 -0.28125q0.65625 0.1875 0.890625 0.75q0.234375 0.5625 -0.046875 1.265625q-0.28125 0.703125 -1.125 1.078125q-2.15625 1.21875 -4.453125 2.203125q-2.296875 0.984375 -4.546875 1.640625q-2.25 0.65625 -4.3125 1.03125q-2.0625 0.375 -3.75 0.375q-0.375 3.75 -2.34375 8.109375q-1.96875 4.359375 -4.78125 8.0625q-2.8125 3.703125 -6.234375 6.140625q-3.421875 2.4375 -6.703125 2.4375q-1.03125 0 -2.71875 -0.28125q-1.6875 -0.28125 -3.28125 -1.96875q-1.59375 -1.6875 -2.71875 -5.390625q-1.125 -3.703125 -0.9375 -10.546875q0.09375 -4.59375 1.03125 -9.75q0.9375 -5.15625 2.25 -10.3125q1.3125 -5.15625 2.953125 -9.984375q1.640625 -4.828125 3.140625 -8.71875q1.5 -3.890625 2.765625 -6.515625q1.265625 -2.625 1.921875 -3.375q0.84375 -1.03125 1.96875 -1.546875q1.125 -0.515625 2.203125 -0.75q1.078125 -0.234375 2.015625 -0.140625q0.9375 0.09375 1.3125 0.28125q0.5625 0.375 0.328125 4.125q-0.234375 3.75 -1.828125 9.65625zm16.96875 52.21875q4.125 -17.34375 6.609375 -27.84375q2.484375 -10.5 3.796875 -16.03125q1.5 -6.5625 2.0625 -9.09375q0.28125 -1.78125 0.46875 -3.46875q0.1875 -1.5 0.1875 -3.09375q0 -1.59375 -0.28125 -2.90625q0.75 -0.46875 1.640625 -0.75q0.890625 -0.28125 1.734375 -0.46875q1.03125 -0.28125 2.0625 -0.46875q1.03125 -0.1875 1.875 -0.1875q0.75 0 1.40625 0.140625q0.65625 0.140625 0.84375 0.609375q0.5625 0.46875 0.515625 1.875q-0.046875 1.40625 -0.234375 2.90625q-0.375 1.78125 -0.84375 3.84375q-1.125 4.03125 -3.09375 11.625q-1.6875 6.46875 -4.546875 17.625q-2.859375 11.15625 -7.171875 28.125q-0.46875 0.46875 -1.125 0.65625q-0.65625 0.1875 -1.21875 0.1875q-0.65625 0 -1.40625 -0.09375q-0.65625 -0.1875 -1.3125 -0.5625q-0.5625 -0.375 -1.125 -0.984375q-0.5625 -0.609375 -0.84375 -1.640625zm64.875 -18.0q-2.8125 4.125 -6.375 8.015625q-3.5625 3.890625 -7.546875 6.9375q-3.984375 3.046875 -8.15625 4.921875q-4.171875 1.875 -8.109375 1.875q-2.0625 0 -4.453125 -0.984375q-2.390625 -0.984375 -4.359375 -3.046875q-1.96875 -2.0625 -3.140625 -5.34375q-1.171875 -3.28125 -0.703125 -7.96875q0.375 -3.84375 2.390625 -8.109375q2.015625 -4.265625 4.96875 -7.828125q2.953125 -3.5625 6.65625 -5.90625q3.703125 -2.34375 7.453125 -2.34375q3.5625 0 5.15625 1.78125q1.59375 1.78125 1.40625 4.40625q-0.28125 2.90625 -1.640625 5.34375q-1.359375 2.4375 -3.234375 4.40625q-1.875 1.96875 -3.984375 3.5625q-2.109375 1.59375 -3.984375 2.90625q-2.0625 1.40625 -3.9375 2.671875q-1.875 1.265625 -3.28125 2.296875q0.09375 2.34375 0.84375 3.9375q0.75 1.59375 1.875 2.578125q1.125 0.984375 2.578125 1.40625q1.453125 0.421875 2.953125 0.421875q3.1875 0 6.65625 -2.015625q3.46875 -2.015625 6.796875 -4.875q3.328125 -2.859375 6.1875 -5.953125q2.859375 -3.09375 4.734375 -5.34375q0.65625 -0.75 1.359375 -0.890625q0.703125 -0.140625 1.125 0.1875q0.421875 0.328125 0.421875 1.125q0 0.796875 -0.65625 1.828125zm-24.0 -14.4375q-1.125 0 -2.671875 1.125q-1.546875 1.125 -3.046875 3.234375q-1.5 2.109375 -2.8125 5.15625q-1.3125 3.046875 -1.96875 6.984375q1.125 -0.84375 2.4375 -1.734375q1.3125 -0.890625 2.625 -1.921875q4.03125 -3.09375 5.625 -5.4375q1.59375 -2.34375 1.78125 -4.03125q0.1875 -1.78125 -0.375 -2.578125q-0.5625 -0.796875 -1.59375 -0.796875zm13.6875 33.46875q-0.65625 1.03125 -1.453125 1.359375q-0.796875 0.328125 -1.40625 0.09375q-0.609375 -0.234375 -0.796875 -0.984375q-0.1875 -0.75 0.375 -1.875q0.28125 -0.5625 1.265625 -2.53125q0.984375 -1.96875 2.34375 -4.734375q1.359375 -2.765625 2.953125 -6.0q1.59375 -3.234375 3.046875 -6.140625q1.453125 -2.90625 2.671875 -5.203125q1.21875 -2.296875 1.78125 -3.328125q-1.03125 -0.9375 -1.40625 -1.359375q-0.375 -0.421875 -0.5625 -1.828125q-0.1875 -1.21875 0.5625 -3.1875q0.75 -1.96875 1.96875 -3.796875q1.21875 -1.828125 2.71875 -3.140625q1.5 -1.3125 2.90625 -1.3125q2.625 0 3.703125 1.6875q1.078125 1.6875 1.265625 3.46875q0.1875 1.21875 -0.1875 3.09375q-0.375 1.875 -1.40625 3.375q0.28125 0.1875 0.75 0.421875q0.46875 0.234375 1.5 0.234375q1.5 0 2.109375 -0.1875q0.609375 -0.1875 1.921875 -0.1875q1.59375 0 2.625 0.796875q1.03125 0.796875 1.6875 1.96875q0.65625 1.171875 0.984375 2.53125q0.328125 1.359375 0.421875 2.484375q0.28125 2.34375 -1.21875 4.875q-1.5 2.53125 -3.65625 5.53125q-1.3125 1.875 -2.625 4.21875q-1.3125 2.34375 -1.125 4.21875q0.1875 1.21875 0.65625 1.96875q0.46875 0.75 2.625 0.75q1.59375 0 3.515625 -1.171875q1.921875 -1.171875 3.9375 -3.0q2.015625 -1.828125 3.984375 -4.03125q1.96875 -2.203125 3.65625 -4.3125q1.6875 -2.109375 2.859375 -3.796875q1.171875 -1.6875 1.734375 -2.4375q0.46875 -0.75 1.21875 -1.03125q0.75 -0.28125 1.3125 0q0.5625 0.28125 0.703125 1.125q0.140625 0.84375 -0.703125 2.25q-0.5625 0.9375 -1.921875 3.0q-1.359375 2.0625 -3.28125 4.59375q-1.921875 2.53125 -4.265625 5.203125q-2.34375 2.671875 -4.921875 4.875q-2.578125 2.203125 -5.15625 3.609375q-2.578125 1.40625 -4.921875 1.40625q-2.4375 0 -4.03125 -0.9375q-1.59375 -0.9375 -2.578125 -2.296875q-0.984375 -1.359375 -1.40625 -3.0q-0.421875 -1.640625 -0.328125 -3.046875q0.09375 -1.125 0.609375 -2.390625q0.515625 -1.265625 1.21875 -2.625q0.703125 -1.359375 1.5 -2.71875q0.796875 -1.359375 1.453125 -2.671875q1.59375 -2.71875 2.578125 -4.640625q0.984375 -1.921875 0.984375 -3.234375q0 -0.84375 -0.375 -1.5q-0.375 -0.65625 -1.21875 -0.65625q-0.5625 0 -0.796875 0.046875q-0.234375 0.046875 -0.46875 0.046875q-0.234375 0 -0.65625 0.046875q-0.421875 0.046875 -1.265625 0.046875q-1.21875 0 -2.0625 -0.375q-0.84375 -0.375 -1.59375 -0.5625q-0.375 0.65625 -1.6875 2.8125q-1.3125 2.15625 -3.046875 5.0625q-1.734375 2.90625 -3.65625 6.09375q-1.921875 3.1875 -3.609375 5.953125q-1.6875 2.765625 -2.859375 4.6875q-1.171875 1.921875 -1.453125 2.296875zm55.78125 -2.71875q0.5625 0.375 1.453125 0.375q0.890625 0 1.78125 -0.375q0.890625 -0.375 1.6875 -1.03125q0.796875 -0.65625 1.171875 -1.6875q0.375 -1.03125 0 -2.953125q-0.375 -1.921875 -1.171875 -4.125q-0.796875 -2.203125 -1.734375 -4.453125q-0.9375 -2.25 -1.59375 -4.125q-0.5625 -1.40625 -0.9375 -2.625q-0.375 -1.03125 -0.703125 -2.015625q-0.328125 -0.984375 -0.515625 -1.359375q-0.46875 0.75 -1.640625 2.4375q-1.171875 1.6875 -2.53125 3.515625q-1.359375 1.828125 -2.578125 3.375q-1.21875 1.546875 -1.6875 2.109375q-0.75 0.84375 -1.453125 0.984375q-0.703125 0.140625 -1.171875 -0.28125q-0.46875 -0.421875 -0.515625 -1.21875q-0.046875 -0.796875 0.703125 -1.921875q0.5625 -0.75 1.6875 -2.390625q1.125 -1.640625 2.25 -3.375q1.125 -1.734375 2.0625 -3.09375q0.9375 -1.359375 1.03125 -1.640625q0.1875 -0.75 -0.515625 -1.96875q-0.703125 -1.21875 -0.234375 -2.8125q0.375 -1.3125 1.6875 -3.046875q1.3125 -1.734375 3.09375 -3.140625q1.78125 -1.40625 3.65625 -2.109375q1.875 -0.703125 3.375 0.046875q1.21875 0.75 1.96875 1.640625q0.75 0.890625 0.5625 1.828125q-0.1875 0.46875 -0.5625 1.21875q-0.375 0.75 -1.125 1.828125q-0.75 1.078125 -2.15625 2.765625q0.28125 2.15625 0.796875 3.9375q0.515625 1.78125 0.984375 3.09375q0.5625 1.59375 1.21875 2.90625q0.84375 1.6875 1.78125 3.46875q0.9375 1.78125 1.6875 3.515625q0.75 1.734375 1.21875 3.234375q0.46875 1.5 0.28125 2.53125q-0.28125 1.59375 -1.640625 3.84375q-1.359375 2.25 -3.375 4.359375q-2.015625 2.109375 -4.59375 3.609375q-2.578125 1.5 -5.390625 1.5q-1.96875 0 -3.796875 -1.21875q-1.828125 -1.21875 -3.09375 -2.859375q-1.265625 -1.640625 -1.875 -3.234375q-0.609375 -1.59375 -0.140625 -2.4375q0.5625 -1.125 1.03125 -1.78125q0.46875 -0.65625 1.40625 -1.5q0.375 -0.28125 0.9375 -0.65625q0.46875 -0.28125 1.3125 -0.5625q0.84375 -0.28125 1.96875 -0.65625q0.9375 2.90625 1.6875 4.546875q0.75 1.640625 1.21875 2.578125q0.5625 1.03125 1.03125 1.40625z" fill-rule="nonzero"/><path fill="#000000" fill-opacity="0.0" d="m324.49585 276.0998l65.322845 0l0 135.74805l-65.322845 0z" fill-rule="evenodd"/><path fill="#000000" d="m357.30835 314.6348q2.53125 0.46875 4.078125 2.109375q1.546875 1.640625 2.390625 3.609375q0.84375 1.96875 1.078125 3.84375q0.234375 1.875 0.140625 2.8125q-0.09375 1.03125 -0.421875 2.296875q-0.328125 1.265625 -0.9375 2.390625q-0.609375 1.125 -1.546875 2.015625q-0.9375 0.890625 -2.25 1.171875q-1.03125 0.28125 -1.96875 0.375q-0.75 0.09375 -1.640625 0.09375q-0.890625 0 -1.359375 -0.375q1.21875 -1.21875 1.96875 -2.8125q0.75 -1.59375 1.21875 -3.09375q0.46875 -1.6875 0.65625 -3.5625q0.28125 -3.09375 -1.21875 -5.015625q-1.5 -1.921875 -3.09375 -1.921875q-1.5 0 -3.0 0.75q-1.5 0.75 -2.8125 2.015625q-1.3125 1.265625 -2.203125 3.09375q-0.890625 1.828125 -1.078125 3.890625q-0.1875 2.90625 1.3125 6.375q1.5 3.46875 3.1875 7.3125q1.21875 2.71875 2.4375 5.109375q1.21875 2.390625 2.0625 4.59375q0.84375 2.203125 1.171875 4.3125q0.328125 2.109375 -0.046875 4.359375q-0.1875 1.125 -0.890625 2.765625q-0.703125 1.640625 -2.015625 3.1875q-1.3125 1.546875 -3.375 2.765625q-2.0625 1.21875 -4.875 1.59375l-2.34375 6.75q-0.84375 0.46875 -1.96875 0.65625q-0.5625 0.09375 -1.125 0.09375q-0.5625 0 -0.9375 -0.09375q-0.375 -0.09375 -0.703125 -0.28125q-0.328125 -0.1875 -0.421875 -0.5625q0.46875 -1.40625 0.75 -2.671875q0.28125 -1.265625 0.5625 -2.203125q0.28125 -1.03125 0.5625 -1.96875q-2.71875 -0.5625 -4.40625 -1.921875q-1.6875 -1.359375 -2.625 -2.953125q-0.9375 -1.59375 -1.265625 -3.140625q-0.328125 -1.546875 -0.234375 -2.390625q0.1875 -2.15625 1.171875 -3.328125q0.984375 -1.171875 2.578125 -2.203125l1.3125 -0.65625q1.3125 -0.65625 2.71875 -1.03125q-0.9375 1.5 -1.21875 3.375q-0.28125 1.03125 -0.28125 2.0625q-0.46875 4.125 1.359375 6.515625q1.828125 2.390625 4.265625 2.578125q0.84375 0 2.015625 -0.46875q1.171875 -0.46875 2.25 -1.453125q1.078125 -0.984375 1.828125 -2.34375q0.75 -1.359375 0.9375 -3.234375q0.1875 -1.78125 -0.234375 -3.421875q-0.421875 -1.640625 -1.03125 -3.046875q-0.609375 -1.40625 -1.359375 -2.671875q-0.75 -1.265625 -1.3125 -2.296875q-0.46875 -1.125 -1.640625 -3.28125q-1.171875 -2.15625 -2.296875 -4.96875q-1.125 -2.8125 -1.921875 -6.0q-0.796875 -3.1875 -0.515625 -6.1875q0.28125 -2.625 1.453125 -4.828125q1.171875 -2.203125 3.046875 -3.9375q1.875 -1.734375 4.265625 -2.859375q2.390625 -1.125 4.921875 -1.59375q0.375 -1.125 0.9375 -3.140625q0.5625 -2.015625 1.03125 -3.234375q0.09375 -0.375 0.84375 -0.65625q0.75 -0.28125 1.78125 -0.09375q2.0625 0.46875 1.875 1.5q-0.28125 0.9375 -0.75 2.578125q-0.46875 1.640625 -0.84375 2.953125z" fill-rule="nonzero"/><path fill="#ffd700" d="m191.62779 452.66885l59.145798 25.839783l63.370514 16.61615l73.9267 1.8408508l46.47171 -9.223663l50.69638 -12.924744l31.690796 -11.074188l23.230286 -12.91507l-116.173676 119.96567l-48.5896 105.20972l-48.57849 -105.20972z" fill-rule="evenodd"/></g></svg>